<svg width="40" height="56" viewBox="0 0 40 56" fill="none" xmlns="http://www.w3.org/2000/svg">
<path d="M12.62 24.62C13.6067 24.62 14.4667 24.5 15.2 24.26C15.9333 24.0067 16.54 23.6533 17.02 23.2C17.5133 22.7333 17.88 22.1733 18.12 21.52C18.36 20.8533 18.48 20.1133 18.48 19.3C18.48 18.5267 18.36 17.8267 18.12 17.2C17.88 16.5733 17.52 16.04 17.04 15.6C16.56 15.16 15.9533 14.8267 15.22 14.6C14.4867 14.36 13.62 14.24 12.62 14.24H8.6L8.6 24.62H12.62ZM12.62 10.08C14.5533 10.08 16.2267 10.3067 17.64 10.76C19.0533 11.2133 20.22 11.8467 21.14 12.66C22.06 13.4733 22.74 14.4467 23.18 15.58C23.6333 16.7133 23.86 17.9533 23.86 19.3C23.86 20.7 23.6267 21.9867 23.16 23.16C22.6933 24.32 21.9933 25.32 21.06 26.16C20.1267 27 18.9533 27.6533 17.54 28.12C16.14 28.5867 14.5 28.82 12.62 28.82H8.6V39H3.22L3.22 10.08L12.62 10.08Z" fill="#DD5D5A"/>
<path d="M27.62 31.38C28.6067 31.38 29.4667 31.5 30.2 31.74C30.9333 31.9933 31.54 32.3467 32.02 32.8C32.5133 33.2667 32.88 33.8267 33.12 34.48C33.36 35.1467 33.48 35.8867 33.48 36.7C33.48 37.4733 33.36 38.1733 33.12 38.8C32.88 39.4267 32.52 39.96 32.04 40.4C31.56 40.84 30.9533 41.1733 30.22 41.4C29.4867 41.64 28.62 41.76 27.62 41.76H23.6L23.6 31.38H27.62ZM27.62 45.92C29.5533 45.92 31.2267 45.6933 32.64 45.24C34.0533 44.7867 35.22 44.1533 36.14 43.34C37.06 42.5267 37.74 41.5533 38.18 40.42C38.6333 39.2867 38.86 38.0467 38.86 36.7C38.86 35.3 38.6267 34.0133 38.16 32.84C37.6933 31.68 36.9933 30.68 36.06 29.84C35.1267 29 33.9533 28.3467 32.54 27.88C31.14 27.4133 29.5 27.18 27.62 27.18H23.6V17H18.22L18.22 45.92H27.62Z" fill="#DD5D5A"/>
</svg>
