<svg width="33" height="32" viewBox="0 0 33 32" fill="none" xmlns="http://www.w3.org/2000/svg">
<path d="M29.9565 16.0001C29.9565 8.65341 23.9698 2.66675 16.6231 2.66675C9.27646 2.66675 3.28979 8.65341 3.28979 16.0001C3.28979 19.8667 4.95646 23.3467 7.59646 25.7867C7.59646 25.8001 7.59646 25.8001 7.58313 25.8134C7.71646 25.9467 7.87646 26.0534 8.00979 26.1734C8.08979 26.2401 8.15646 26.3067 8.23646 26.3601C8.47646 26.5601 8.74313 26.7467 8.99646 26.9334L9.26313 27.1201C9.51646 27.2934 9.78313 27.4534 10.0631 27.6001C10.1565 27.6534 10.2631 27.7201 10.3565 27.7734C10.6231 27.9201 10.9031 28.0534 11.1965 28.1734C11.3031 28.2267 11.4098 28.2801 11.5165 28.3201C11.8098 28.4401 12.1031 28.5467 12.3965 28.6401C12.5031 28.6801 12.6098 28.7201 12.7165 28.7467C13.0365 28.8401 13.3565 28.9201 13.6765 29.0001C13.7698 29.0267 13.8631 29.0534 13.9698 29.0667C14.3431 29.1467 14.7165 29.2001 15.1031 29.2401C15.1565 29.2401 15.2098 29.2534 15.2631 29.2667C15.7165 29.3067 16.1698 29.3334 16.6231 29.3334C17.0765 29.3334 17.5298 29.3067 17.9698 29.2667C18.0231 29.2667 18.0765 29.2534 18.1298 29.2401C18.5165 29.2001 18.8898 29.1467 19.2631 29.0667C19.3565 29.0534 19.4498 29.0134 19.5565 29.0001C19.8765 28.9201 20.2098 28.8534 20.5165 28.7467C20.6231 28.7067 20.7298 28.6667 20.8365 28.6401C21.1298 28.5334 21.4365 28.4401 21.7165 28.3201C21.8231 28.2801 21.9298 28.2267 22.0365 28.1734C22.3165 28.0534 22.5965 27.9201 22.8765 27.7734C22.9831 27.7201 23.0765 27.6534 23.1698 27.6001C23.4365 27.4401 23.7031 27.2934 23.9698 27.1201C24.0631 27.0667 24.1431 27.0001 24.2365 26.9334C24.5031 26.7467 24.7565 26.5601 24.9965 26.3601C25.0765 26.2934 25.1431 26.2267 25.2231 26.1734C25.3698 26.0534 25.5165 25.9334 25.6498 25.8134C25.6498 25.8001 25.6498 25.8001 25.6365 25.7867C28.2898 23.3467 29.9565 19.8667 29.9565 16.0001ZM23.2098 22.6267C19.5965 20.2001 13.6765 20.2001 10.0365 22.6267C9.44979 23.0134 8.96979 23.4667 8.56979 23.9601C6.46954 21.8431 5.29065 18.9821 5.28979 16.0001C5.28979 9.74675 10.3698 4.66675 16.6231 4.66675C22.8765 4.66675 27.9565 9.74675 27.9565 16.0001C27.9565 19.0934 26.7031 21.9067 24.6765 23.9601C24.2898 23.4667 23.7965 23.0134 23.2098 22.6267V22.6267Z" fill="#717171"/>
<path d="M16.623 9.23999C13.863 9.23999 11.623 11.48 11.623 14.24C11.623 16.9467 13.743 19.1467 16.5564 19.2267H16.7964C18.0907 19.1841 19.3177 18.6401 20.2184 17.7096C21.119 16.7791 21.6227 15.535 21.623 14.24C21.623 11.48 19.383 9.23999 16.623 9.23999Z" fill="#717171"/>
</svg>
